<svg width="41" height="41" viewBox="0 0 41 41" fill="none" xmlns="http://www.w3.org/2000/svg">

<defs>
<linearGradient id="paint0_linear" x1="29.8733" y1="31.3334" x2="11.5132" y2="9.90055" gradientUnits="userSpaceOnUse">
<stop stop-color="#52D67A"/>
<stop offset="1" stop-color="#5AEE87"/>
</linearGradient>
<clipPath id="clip0">
<rect width="31.16" height="30.176" fill="white" transform="translate(4.91992 5.41199)"/>
</clipPath>
</defs>
<g clip-path="url(#clip0)">
</g>
<path d="M34.0219 28.6645C34.0491 28.9829 33.8007 29.2565 33.4844 29.2565H7.469C7.15349 29.2565 6.90529 28.9842 6.93132 28.6664L8.79566 5.91215C8.81886 5.6295 9.05263 5.41199 9.33347 5.41199H31.5423C31.8224 5.41199 32.0559 5.62841 32.0799 5.91024L34.0219 28.6645Z" fill="#1DCF65"/>
<path d="M36.0988 34.6011C36.1313 34.9983 35.8211 35.3387 35.4268 35.3387H5.59438C5.2009 35.3387 4.89092 34.9999 4.92208 34.6035L7.06376 7.34693C7.09168 6.99246 7.38426 6.71948 7.73606 6.71948H33.1958C33.5468 6.71948 33.8391 6.99137 33.868 7.34475L36.0988 34.6011Z" fill="url(#paint0_linear)"/>
<path d="M19.9232 26.6952C16.0402 26.6952 12.8813 22.863 12.8813 18.1527C12.8813 17.9073 13.0782 17.7084 13.3211 17.7084C13.564 17.7084 13.7608 17.9072 13.7608 18.1527C13.7608 22.3731 16.5253 25.8066 19.9234 25.8066C23.3214 25.8066 26.0859 22.3731 26.0859 18.1527C26.0859 17.9073 26.2827 17.7084 26.5257 17.7084C26.7686 17.7084 26.9654 17.9072 26.9654 18.1527C26.9653 22.863 23.8062 26.6952 19.9232 26.6952Z" fill="white"/>
<path d="M24.2581 18.0335C24.1456 18.0335 24.0331 17.9901 23.9471 17.9033C23.7754 17.7298 23.7754 17.4485 23.9471 17.275L26.226 14.9727C26.3084 14.8894 26.4203 14.8425 26.5369 14.8425C26.6536 14.8425 26.7654 14.8893 26.8479 14.9727L29.1045 17.2527C29.2762 17.4262 29.2762 17.7075 29.1045 17.881C28.9327 18.0543 28.6543 18.0545 28.4826 17.881L26.5368 15.9152L24.569 17.9033C24.4831 17.9901 24.3706 18.0335 24.2581 18.0335Z" fill="white"/>
</svg>
