<svg width="211" height="143" viewBox="0 0 211 143" fill="none" xmlns="http://www.w3.org/2000/svg">
<path opacity="0.1" d="M7.17501 136.276V139.146L1.43445 138.514V136.276H7.17501Z" fill="white"/>
<path d="M11.8138 97.1267L44.8976 91.7111V123.219L13.4637 121.564L11.8138 97.1267Z" fill="#5ECE7B"/>
<path opacity="0.05" d="M11.8138 97.1267L44.8976 91.7111V123.219L13.4637 121.564L11.8138 97.1267Z" fill="black"/>
<path d="M44.8988 91.7111L84.2843 94.6977L82.1047 122.117L44.8988 123.219V91.7111Z" fill="#5ECE7B"/>
<path opacity="0.1" d="M44.8988 91.7111L84.2843 94.6977L82.1047 122.117L44.8988 123.219V91.7111Z" fill="black"/>
<path d="M56.9723 82.2583L44.8988 91.8751L84.1685 94.8616L90.5859 85.0202L56.9723 82.2583Z" fill="#5ECE7B"/>
<path d="M0 86.7016L29.6761 83.0465L44.8994 91.7989L11.9355 97.2253L0 86.7016Z" fill="#5ECE7B"/>
<path d="M51.987 99.9816V142.912L36.5519 141.318L29.8378 140.629L27.7924 140.414L21.0826 139.72L11.8138 138.764V97.225L44.7594 99.482L51.987 99.9816Z" fill="#5ECE7B"/>
<path d="M84.2836 94.8618V136.678L71.9105 139.066L65.8929 140.228L51.9875 142.912V100.033L84.2836 94.8618Z" fill="#5ECE7B"/>
<path opacity="0.05" d="M84.2836 94.8618V136.678L71.9105 139.066L65.8929 140.228L51.9875 142.912V100.033L84.2836 94.8618Z" fill="black"/>
<path d="M0 106.134L11.9041 97.225L51.9888 99.9427L46.088 109.828L0 106.134Z" fill="#5ECE7B"/>
<path opacity="0.1" d="M0 106.134L11.9041 97.225L51.9888 99.9427L46.088 109.828L0 106.134Z" fill="white"/>
<path d="M84.1359 94.8618L51.9875 100.15L62.4509 109.828L96.887 103.863L84.1359 94.8618Z" fill="#5ECE7B"/>
<path opacity="0.1" d="M84.1359 94.8618L51.9875 100.15L62.4509 109.828L96.887 103.863L84.1359 94.8618Z" fill="white"/>
<path opacity="0.1" d="M71.6814 138.614L66.1675 139.762V134.083L71.3324 132.672L71.6814 138.614Z" fill="white"/>
<path opacity="0.1" d="M78.7702 137.826L73.2562 138.974V130.145L78.4211 128.733L78.7702 137.826Z" fill="white"/>
<path fill-rule="evenodd" clip-rule="evenodd" d="M24.9754 119.061C24.2951 121.01 22.1871 122.43 19.692 122.43C18.5962 122.43 17.5751 122.156 16.7168 121.684C17.2446 123.481 18.9062 124.793 20.8742 124.793C23.2669 124.793 25.2066 122.854 25.2066 120.461C25.2066 119.971 25.1252 119.5 24.9754 119.061Z" fill="#F1F2F3"/>
<mask id="mask0" mask-type="alpha" maskUnits="userSpaceOnUse" x="16" y="119" width="10" height="6">
<path fill-rule="evenodd" clip-rule="evenodd" d="M24.9754 119.061C24.2951 121.01 22.1871 122.43 19.692 122.43C18.5962 122.43 17.5751 122.156 16.7168 121.684C17.2446 123.481 18.9062 124.793 20.8742 124.793C23.2669 124.793 25.2066 122.854 25.2066 120.461C25.2066 119.971 25.1252 119.5 24.9754 119.061Z" fill="white"/>
</mask>
<g mask="url(#mask0)">
<circle cx="22.0543" cy="124.007" r="1.57542" fill="#1D1F22"/>
<path d="M17.0646 123.912L16.9996 123.912L19.2008 124.85C19.7284 125.075 20.2922 125.19 20.8586 125.19L21.6157 125.19C22.7686 125.19 23.8022 124.522 24.2777 123.468L24.2777 123.318C24.2777 123.247 24.225 123.185 24.1548 123.174C23.7237 123.109 23.2864 123.147 22.8777 123.285L22.4992 123.412L21.3185 123.707C20.7795 123.842 20.2139 123.848 19.6653 123.725L19.2042 123.621C18.7635 123.522 18.3071 123.563 17.8983 123.74C17.636 123.854 17.3525 123.912 17.0646 123.912Z" fill="#4D9AF5"/>
</g>
<path fill-rule="evenodd" clip-rule="evenodd" d="M35.9393 119.776C36.425 121.809 38.4249 123.436 40.9411 123.647C41.9969 123.735 43.0045 123.563 43.8788 123.19C43.2944 124.892 41.6802 126.115 39.7802 126.115C37.3875 126.115 35.4478 124.175 35.4478 121.783C35.4478 121.059 35.6254 120.376 35.9393 119.776Z" fill="#F1F2F3"/>
<mask id="mask1" mask-type="alpha" maskUnits="userSpaceOnUse" x="35" y="119" width="10" height="8">
<path fill-rule="evenodd" clip-rule="evenodd" d="M36.2406 119.28C36.3733 121.771 38.4355 123.751 40.96 123.751C42.1318 123.751 43.2039 123.324 44.0298 122.618C43.64 124.611 41.8846 126.114 39.7781 126.114C37.3854 126.114 35.4457 124.174 35.4457 121.782C35.4457 120.85 35.7399 119.987 36.2406 119.28Z" fill="white"/>
</mask>
<g mask="url(#mask1)">
<circle r="1.57542" transform="matrix(-1 0 0 1 38.5979 125.326)" fill="#1D1F22"/>
<path d="M41.9037 125.327L42.5017 125.351C43.3392 125.385 44.0005 126.074 44.0005 126.912H40.4498C39.5603 126.912 38.6869 126.675 37.9197 126.225L35.0005 124.512C35.0005 123.799 35.7707 123.352 36.3897 123.706L38.0331 124.645C38.3394 124.82 38.686 124.912 39.0388 124.912H39.9071C40.2994 124.912 40.6883 124.984 41.0547 125.124L41.2116 125.184C41.433 125.269 41.6668 125.317 41.9037 125.327Z" fill="#4D9AF5"/>
</g>
<path fill-rule="evenodd" clip-rule="evenodd" d="M35.4049 132.205C34.1879 129.969 31.9486 128.414 29.3158 128.275C26.6793 128.137 24.2859 129.452 22.8413 131.552C23.9118 129.038 26.4684 127.337 29.3561 127.489C32.2403 127.641 34.6018 129.596 35.4049 132.205Z" fill="#F1F2F3"/>
<path fill-rule="evenodd" clip-rule="evenodd" d="M36.3492 132.427C36.1143 132.201 35.7799 132.099 35.4538 132.186C35.1352 132.272 34.9003 132.518 34.8055 132.821C34.8416 132.482 35.0814 132.184 35.4307 132.091C35.7868 131.995 36.1507 132.141 36.3492 132.427Z" fill="#F1F2F3"/>
<path fill-rule="evenodd" clip-rule="evenodd" d="M22.0609 131.574C22.3439 131.423 22.6871 131.414 22.9749 131.58C23.267 131.749 23.4309 132.057 23.4374 132.383C23.5001 132.039 23.3458 131.679 23.0262 131.494C22.7105 131.312 22.3265 131.355 22.0609 131.574Z" fill="#F1F2F3"/>
<path d="M114.956 39.0206L114.958 39.0221C114.961 39.0275 114.961 39.0312 114.963 39.0365C114.985 39.0937 115.022 39.1394 115.067 39.1745C115.102 39.2016 115.145 39.2218 115.191 39.2341C116.114 39.453 117.086 39.4596 118.052 39.2787C118.06 39.2777 118.064 39.2809 118.069 39.2782C118.077 39.2772 118.084 39.2725 118.091 39.2714C119.985 38.9096 121.856 37.828 123.29 36.1716C125.503 33.6189 125.06 31.6535 124.125 29.2058L125.778 27.2965C125.903 27.1528 125.891 26.9399 125.752 26.8182C125.602 26.6848 125.401 26.7149 125.276 26.8586L123.623 28.768C121.079 28.1763 119.076 28.0093 116.862 30.5641C114.685 33.0703 113.938 36.3867 114.956 39.0204L114.956 39.0206ZM115.194 36.5191L116.9 36.5168L115.424 38.2208C115.272 37.6754 115.196 37.1043 115.194 36.5192L115.194 36.5191ZM115.671 33.8373L119.228 33.8332L117.492 35.8371L115.212 35.8409C115.276 35.1749 115.429 34.5002 115.671 33.8374L115.671 33.8373ZM117.238 31.1588L121.551 31.1521L119.816 33.1539L115.968 33.1593C116.297 32.4618 116.718 31.7853 117.238 31.1588L117.238 31.1588ZM120.845 37.4148L120.318 33.592L122.055 31.5881L122.648 35.876C122.101 36.4817 121.492 36.9946 120.846 37.4147L120.845 37.4148ZM118.306 38.5393L117.992 36.2735L119.728 34.2696L120.217 37.8042C119.599 38.1376 118.955 38.3861 118.306 38.5394L118.306 38.5393ZM115.926 38.6587L117.404 36.9527L117.639 38.6517C117.061 38.731 116.487 38.7324 115.926 38.6588L115.926 38.6587ZM123.23 35.1694L122.642 30.9091L123.614 29.7861C124.332 31.7317 124.603 33.2788 123.23 35.1694L123.23 35.1694ZM123.113 29.352L122.141 30.4749L117.854 30.4817C119.536 28.8526 121.099 28.908 123.113 29.352L123.113 29.352Z" fill="#5ECE7B"/>
<path d="M117.227 56.7361L117.225 56.7381C117.219 56.7402 117.216 56.7404 117.21 56.7426C117.152 56.7605 117.104 56.7948 117.067 56.8378C117.038 56.871 117.015 56.9133 117 56.9589C116.729 57.8672 116.667 58.8374 116.792 59.8128C116.793 59.8202 116.79 59.8241 116.792 59.8296C116.793 59.837 116.797 59.8443 116.797 59.8517C117.051 61.7632 118.024 63.6931 119.596 65.2184C122.019 67.5731 124.006 67.2436 126.503 66.4488L128.315 68.208C128.451 68.3409 128.665 68.341 128.794 68.2092C128.936 68.0674 128.917 67.8649 128.781 67.732L126.969 65.9728C127.704 63.4665 127.985 61.4768 125.561 59.1204C123.183 56.8045 119.914 55.8698 117.227 56.7362L117.227 56.7361ZM119.71 57.1163L119.615 58.82L117.998 57.2484C118.551 57.1281 119.126 57.0851 119.71 57.1162L119.71 57.1163ZM122.361 57.7453L122.162 61.297L120.26 59.4491L120.386 57.1725C121.048 57.2743 121.713 57.4655 122.361 57.7453L122.361 57.7453ZM124.945 59.4624L124.707 63.7685L122.807 61.9223L123.021 58.0805C123.698 58.4484 124.35 58.9073 124.945 59.4624L124.945 59.4624ZM118.494 62.7074L122.341 62.3986L124.243 64.2465L119.928 64.5947C119.354 64.0142 118.877 63.3764 118.494 62.7075L118.494 62.7074ZM117.516 60.1075L119.796 59.9233L121.698 61.7712L118.141 62.0575C117.844 61.4215 117.632 60.7642 117.516 60.1076L117.516 60.1075ZM117.533 57.7247L119.152 59.298L117.442 59.4357C117.396 58.8538 117.427 58.2809 117.532 57.7247L117.533 57.7247ZM120.6 65.2165L124.887 64.8716L125.953 65.9063C123.969 66.5118 122.409 66.694 120.6 65.2165L120.6 65.2165ZM126.415 65.4304L125.349 64.3958L125.586 60.1159C127.117 61.8879 126.973 63.4449 126.415 65.4304L126.415 65.4304Z" fill="#5ECE7B"/>
<path d="M149.658 42.5931L149.658 42.5957C149.654 42.6005 149.651 42.6028 149.648 42.6076C149.61 42.6551 149.589 42.7101 149.582 42.7668C149.577 42.8106 149.581 42.8584 149.595 42.9045C149.877 43.8092 150.368 44.6484 151.017 45.3872C151.022 45.393 151.021 45.3981 151.026 45.4014C151.031 45.4072 151.039 45.4108 151.043 45.4166C152.322 46.8602 154.207 47.9167 156.363 48.3032C159.688 48.902 161.152 47.5182 162.779 45.4636L165.264 45.9099C165.452 45.9439 165.629 45.8248 165.662 45.6432C165.701 45.4464 165.572 45.2889 165.385 45.2548L162.899 44.8086C162.108 42.3191 161.229 40.5122 157.902 39.913C154.635 39.3214 151.403 40.3728 149.658 42.5932L149.658 42.5931ZM151.93 41.5204L152.804 42.9862L150.584 42.5866C150.976 42.1778 151.428 41.8211 151.93 41.5203L151.93 41.5204ZM154.48 40.561L156.3 43.6172L153.69 43.1475L152.522 41.1891C153.128 40.904 153.786 40.691 154.48 40.561L154.48 40.561ZM157.583 40.5404L159.791 44.2449L157.184 43.7755L155.214 40.4701C155.982 40.3965 156.778 40.413 157.583 40.5404L157.583 40.5404ZM154.046 46.8365L157.064 44.4308L159.673 44.9005L156.29 47.6005C155.49 47.4397 154.737 47.1775 154.046 46.8366L154.046 46.8365ZM151.782 45.2271L153.57 43.8002L156.18 44.2699L153.39 46.4949C152.788 46.1338 152.245 45.7069 151.782 45.2272L151.782 45.2271ZM150.464 43.242L152.686 43.6419L151.345 44.7115C150.982 44.2547 150.688 43.7622 150.464 43.242L150.464 43.242ZM157.195 47.7405L160.557 45.0588L162.019 45.3212C160.713 46.9317 159.521 47.9546 157.195 47.7405L157.195 47.7405ZM162.136 44.6684L160.674 44.406L158.479 40.7241C160.739 41.3383 161.489 42.7101 162.136 44.6684L162.136 44.6684Z" fill="#5ECE7B"/>
<path opacity="0.3" d="M84.4472 51.2629C84.4416 51.2655 84.4338 51.2676 84.4295 51.2708C84.4278 51.2723 84.4266 51.2716 84.4249 51.273C84.4232 51.2745 84.4225 51.2757 84.4215 51.276C84.4174 51.2802 84.4133 51.2844 84.4082 51.2888C84.4034 51.2942 84.3974 51.2989 84.3938 51.305C84.3917 51.3087 84.3902 51.3111 84.3878 51.3138C84.3871 51.3151 84.3852 51.3156 84.3854 51.3166C84.0518 51.9329 83.8613 52.62 83.8044 53.3342C83.8034 53.3385 83.8013 53.3422 83.8013 53.3463C83.8007 53.3516 83.8022 53.3574 83.8028 53.3634C83.6978 54.7666 84.1146 56.2718 85.0263 57.5634C86.2885 59.3496 88.0619 60.1034 90.2972 59.8091L91.4125 61.3896C91.4528 61.4468 91.5339 61.4611 91.592 61.4208C91.6377 61.389 91.6562 61.3336 91.6429 61.2836C91.639 61.2692 91.6325 61.2566 91.6237 61.2435L90.5077 59.6641C91.2066 58.3395 91.3923 57.0464 91.0585 55.8008C90.8933 55.1843 90.602 54.5799 90.1849 53.9888C88.8014 52.0303 86.5624 50.9567 84.481 51.2528C84.479 51.2533 84.4783 51.2545 84.4761 51.2541L84.4664 51.2567C84.46 51.2564 84.4537 51.2601 84.4472 51.2629L84.4472 51.2629ZM86.4157 51.6155L85.9759 53.2453L84.7301 51.4815C85.2897 51.4283 85.8593 51.4743 86.4157 51.6155L86.4157 51.6155ZM84.5191 51.6286L85.7649 53.3924L84.0691 53.2436C84.1256 52.6758 84.277 52.1309 84.5191 51.6286L84.5191 51.6286ZM84.0506 53.4977L85.9569 53.6652L87.2697 55.5232L84.2329 55.2572C84.0815 54.6689 84.0205 54.0749 84.0505 53.4977L84.0506 53.4977ZM89.8994 54.1218L88.9859 57.5079L87.6731 55.6498L88.492 52.6153C89.0272 53.0123 89.5143 53.5024 89.9258 54.0725C89.9147 54.0857 89.9045 54.1019 89.8994 54.1218L89.8994 54.1218ZM85.2515 57.3444C85.2321 57.3424 85.2134 57.3464 85.1954 57.3533C84.796 56.7738 84.4981 56.1527 84.3055 55.5198L87.462 55.7969L88.7748 57.655L85.2515 57.3444ZM85.3836 57.6116L88.9664 57.9258L90.1295 59.5718C88.1192 59.8027 86.5621 59.1588 85.3836 57.6115L85.3836 57.6116ZM90.3419 59.4264L89.1796 57.7792L90.1089 54.3354C91.1718 55.9619 91.2499 57.6321 90.342 59.4265L90.3419 59.4264ZM88.2692 52.4579C88.2682 52.4582 88.2682 52.4582 88.2684 52.4591L87.481 55.377L86.1679 53.518L86.6631 51.686C87.2209 51.8556 87.7632 52.1158 88.2691 52.4578L88.2692 52.4579Z" fill="#5ECE7B"/>
<path opacity="0.3" d="M109.712 95.4116C109.71 95.4175 109.706 95.4247 109.706 95.43C109.706 95.4323 109.704 95.4327 109.704 95.435C109.704 95.4372 109.705 95.4386 109.704 95.4395C109.705 95.4453 109.705 95.4512 109.705 95.4579C109.706 95.4651 109.705 95.4727 109.707 95.4795C109.709 95.4835 109.709 95.4862 109.71 95.4898C109.71 95.4912 109.709 95.493 109.71 95.4934C109.944 96.1542 110.326 96.7562 110.818 97.2773C110.82 97.2809 110.821 97.285 110.825 97.2877C110.828 97.2918 110.833 97.2945 110.838 97.2981C111.809 98.3169 113.205 99.0168 114.775 99.2065C116.946 99.4676 118.694 98.6574 119.975 96.8016L121.895 97.0339C121.965 97.0423 122.03 96.9917 122.039 96.9216C122.046 96.8664 122.017 96.8155 121.971 96.7919C121.958 96.7851 121.944 96.7815 121.928 96.7792L120.008 96.5482C119.494 95.1415 118.659 94.1368 117.511 93.5492C116.943 93.2584 116.3 93.0693 115.581 92.9824C113.201 92.6957 110.903 93.6371 109.727 95.3798C109.726 95.3816 109.727 95.3829 109.725 95.3843L109.72 95.3932C109.716 95.3977 109.714 95.4049 109.712 95.4116L109.712 95.4116ZM111.293 94.1876L112.208 95.6066L110.064 95.3483C110.4 94.8974 110.816 94.5057 111.293 94.1876L111.293 94.1876ZM110.031 95.6035L112.175 95.8618L110.928 97.0202C110.544 96.5975 110.242 96.1199 110.031 95.6035L110.031 95.6035ZM111.104 97.2043L112.506 95.9022L114.765 96.1741L112.532 98.2488C111.994 97.9666 111.512 97.6137 111.104 97.2044L111.104 97.2043ZM115.489 93.2835L117.388 96.2315L115.13 95.9597L113.427 93.3176C114.081 93.1866 114.771 93.1538 115.47 93.2308C115.472 93.2479 115.477 93.2663 115.489 93.2834L115.489 93.2835ZM114.763 98.8926C114.749 98.9055 114.739 98.9221 114.732 98.9401C114.034 98.8479 113.374 98.6524 112.775 98.371L115.097 96.2149L117.356 96.4867L114.763 98.8926ZM115.05 98.9737L117.685 96.5262L119.686 96.7669C118.51 98.4132 116.988 99.1367 115.05 98.9736L115.05 98.9737ZM119.721 96.5119L117.719 96.2698L115.788 93.2713C117.707 93.5732 118.998 94.6351 119.721 96.5119L119.721 96.5119ZM113.161 93.3773C113.161 93.3782 113.161 93.3782 113.161 93.3787L114.798 95.9193L112.539 95.647L111.511 94.0513C112.011 93.7512 112.568 93.5233 113.161 93.3773L113.161 93.3773Z" fill="#5ECE7B"/>
<path opacity="0.3" d="M199.663 108.352C199.667 108.357 199.671 108.364 199.676 108.367C199.678 108.368 199.677 108.37 199.679 108.371C199.681 108.372 199.682 108.373 199.683 108.373C199.688 108.376 199.693 108.379 199.699 108.383C199.705 108.386 199.712 108.39 199.718 108.392C199.722 108.393 199.725 108.394 199.728 108.396C199.73 108.396 199.731 108.398 199.732 108.397C200.415 108.551 201.128 108.549 201.831 108.41C201.836 108.41 201.84 108.411 201.844 108.41C201.849 108.409 201.854 108.406 201.86 108.404C203.239 108.125 204.575 107.316 205.572 106.089C206.949 104.39 207.195 102.479 206.306 100.407L207.525 98.9049C207.57 98.8506 207.561 98.7687 207.507 98.7237C207.464 98.6882 207.406 98.6854 207.361 98.7118C207.348 98.7194 207.338 98.7291 207.328 98.7411L206.109 100.243C204.645 99.929 203.35 100.1 202.241 100.759C201.693 101.085 201.19 101.529 200.734 102.091C199.223 103.953 198.796 106.399 199.644 108.322C199.646 108.324 199.647 108.325 199.647 108.327L199.652 108.335C199.654 108.342 199.659 108.347 199.663 108.352L199.663 108.352ZM199.47 106.362L201.158 106.344L199.797 108.021C199.594 107.496 199.484 106.936 199.47 106.362L199.47 106.362ZM199.996 108.184L201.356 106.507L201.672 108.18C201.111 108.279 200.545 108.281 199.996 108.184L199.996 108.184ZM201.922 108.129L201.567 106.248L203 104.481L203.566 107.477C203.041 107.782 202.486 108.002 201.922 108.129L201.922 108.129ZM200.939 102.33L204.446 102.292L203.013 104.059L199.87 104.092C200.107 103.47 200.447 102.868 200.884 102.317C200.9 102.325 200.918 102.33 200.939 102.33L200.939 102.33ZM205.3 105.931C205.303 105.95 205.312 105.967 205.324 105.983C204.874 106.524 204.357 106.979 203.8 107.336L203.212 104.222L204.645 102.455L205.3 105.931ZM205.521 105.732L204.853 102.198L206.123 100.632C206.89 102.505 206.691 104.178 205.521 105.732L205.521 105.732ZM205.926 100.467L204.655 102.032L201.088 102.07C202.366 100.606 203.952 100.079 205.926 100.467L205.926 100.467ZM199.779 104.349C199.779 104.35 199.779 104.35 199.78 104.35L202.802 104.318L201.368 106.085L199.471 106.105C199.483 105.522 199.586 104.929 199.779 104.35L199.779 104.349Z" fill="#5ECE7B"/>
<path opacity="0.3" d="M120.196 3.84179C120.192 3.84692 120.187 3.85286 120.185 3.85792C120.184 3.86008 120.183 3.86015 120.182 3.86231C120.182 3.86446 120.182 3.86588 120.181 3.86662C120.18 3.87235 120.179 3.87808 120.177 3.88455C120.176 3.8917 120.173 3.89892 120.173 3.90599C120.173 3.91023 120.174 3.91306 120.173 3.91664C120.173 3.91805 120.172 3.91954 120.172 3.92021C120.222 4.61932 120.43 5.30128 120.765 5.93437C120.767 5.93854 120.767 5.94279 120.769 5.94622C120.772 5.95106 120.776 5.9551 120.78 5.95987C121.444 7.20014 122.604 8.2462 124.067 8.84651C126.09 9.67586 127.991 9.35985 129.719 7.91149L131.509 8.64625C131.573 8.67278 131.649 8.64134 131.677 8.5762C131.698 8.52481 131.684 8.46811 131.646 8.43316C131.635 8.42308 131.623 8.4159 131.608 8.40953L129.819 7.6762C129.698 6.18344 129.16 4.9928 128.21 4.12107C127.739 3.68961 127.169 3.33612 126.5 3.06131C124.281 2.15169 121.816 2.44796 120.219 3.81511C120.217 3.8166 120.217 3.81801 120.215 3.81883L120.209 3.82625C120.203 3.82937 120.2 3.83591 120.196 3.84178L120.196 3.84179ZM122.046 3.08249L122.55 4.69361L120.552 3.87431C120.995 3.529 121.501 3.26209 122.046 3.08249L122.046 3.08249ZM120.453 4.11171L122.451 4.93102L120.94 5.71587C120.683 5.20642 120.518 4.66546 120.453 4.1117L120.453 4.11171ZM121.061 5.94016L122.759 5.05804L124.864 5.92088L122.159 7.32675C121.716 6.91167 121.345 6.44333 121.061 5.94022L121.061 5.94016ZM126.33 3.32681L127.378 6.67399L125.272 5.81114L124.334 2.81139C124.999 2.85896 125.673 3.01094 126.326 3.271C126.324 3.28812 126.324 3.30726 126.33 3.32678L126.33 3.32681ZM124.139 8.54088C124.122 8.54954 124.108 8.56298 124.097 8.57843C123.448 8.30396 122.864 7.93987 122.361 7.5093L125.173 6.04855L127.278 6.91139L124.139 8.54088ZM124.394 8.69538L127.585 7.037L129.45 7.8013C127.878 9.07538 126.219 9.368 124.394 8.69529L124.394 8.69538ZM129.552 7.56467L127.687 6.79895L126.622 3.39457C128.392 4.1962 129.354 5.56334 129.552 7.56474L129.552 7.56467ZM124.062 2.79819C124.061 2.79893 124.061 2.79893 124.062 2.7996L124.964 5.68408L122.858 4.82056L122.292 3.00914C122.854 2.85279 123.451 2.78115 124.062 2.79812L124.062 2.79819Z" fill="#5ECE7B"/>
<path opacity="0.3" d="M54.5037 66.5697C54.506 66.5754 54.5079 66.5832 54.511 66.5877C54.5124 66.5894 54.5117 66.5906 54.5131 66.5923C54.5146 66.5941 54.5158 66.5948 54.516 66.5958C54.5201 66.6 54.5241 66.6042 54.5284 66.6094C54.5337 66.6144 54.5382 66.6206 54.5442 66.6243C54.5478 66.6266 54.5502 66.6281 54.5529 66.6306C54.5541 66.6313 54.5545 66.6333 54.5555 66.6331C55.162 66.9843 55.8433 67.1945 56.5555 67.2721C56.5598 67.2731 56.5634 67.2754 56.5675 67.2754C56.5728 67.2763 56.5786 67.2749 56.5847 67.2745C57.9843 67.42 59.5008 67.0467 60.8182 66.1727C62.6401 64.9626 63.4448 63.2117 63.215 60.9688L64.8271 59.8996C64.8854 59.8609 64.902 59.7803 64.8635 59.7211C64.833 59.6744 64.7781 59.6543 64.7278 59.6662C64.7133 59.6697 64.7005 59.6758 64.6871 59.6842L63.0762 60.7542C61.7724 60.0173 60.4852 59.7944 59.2304 60.0921C58.6094 60.2394 57.9969 60.5132 57.3939 60.9131C55.3963 62.2395 54.2586 64.4466 54.4945 66.5357C54.495 66.5376 54.4962 66.5384 54.4957 66.5406L54.498 66.5504C54.4975 66.5567 54.501 66.5631 54.5036 66.5698L54.5037 66.5697ZM54.9129 64.6123L56.5293 65.0989L54.7303 66.2932C54.6933 65.7323 54.7557 65.1643 54.9129 64.6122L54.9129 64.6123ZM54.8713 66.5084L56.6703 65.3141L56.4726 67.0048C55.9066 66.9319 55.3664 66.7649 54.8712 66.5084L54.8713 66.5084ZM56.7261 67.0307L56.9485 65.1299L58.8436 63.8713L58.4901 66.8992C57.8977 67.0335 57.3022 67.0774 56.7261 67.0308L56.7261 67.0307ZM57.5187 61.2023L60.877 62.2131L58.9818 63.4717L55.9722 62.5657C56.3844 62.0422 56.8884 61.5694 57.4701 61.1745C57.483 61.1859 57.4989 61.1967 57.5186 61.2023L57.5187 61.2023ZM60.6058 65.9413C60.6032 65.9606 60.6067 65.9794 60.6131 65.9976C60.0223 66.3801 59.3928 66.66 58.7547 66.8342L59.1228 63.687L61.0179 62.4284L60.6058 65.9413ZM60.8767 65.817L61.2941 62.2446L62.973 61.1295C63.1458 63.1457 62.4572 64.6835 60.8766 65.8169L60.8767 65.817ZM62.8339 60.913L61.1538 62.0274L57.7382 60.9991C59.3947 59.9835 61.0665 59.9536 62.834 60.913L62.8339 60.913ZM55.8084 62.7839C55.8087 62.7848 55.8087 62.7848 55.8096 62.7846L58.7035 63.656L56.8074 64.9148L54.9905 64.367C55.1761 63.8143 55.4519 63.2797 55.8083 62.7839L55.8084 62.7839Z" fill="#5ECE7B"/>
<path opacity="0.3" d="M97.2049 17.6767C97.2072 17.6823 97.2091 17.6902 97.2122 17.6946C97.2136 17.6963 97.2129 17.6975 97.2143 17.6993C97.2157 17.701 97.2169 17.7018 97.2172 17.7027C97.2212 17.707 97.2253 17.7112 97.2296 17.7164C97.2349 17.7213 97.2394 17.7275 97.2454 17.7313C97.249 17.7335 97.2514 17.735 97.254 17.7375C97.2552 17.7383 97.2557 17.7402 97.2567 17.74C97.8631 18.0912 98.5445 18.3014 99.2567 18.379C99.261 18.3801 99.2646 18.3823 99.2687 18.3824C99.274 18.3832 99.2798 18.3818 99.2858 18.3814C100.685 18.5269 102.202 18.1536 103.519 17.2797C105.341 16.0695 106.146 14.3186 105.916 12.0757L107.528 11.0065C107.587 10.9678 107.603 10.8872 107.565 10.828C107.534 10.7814 107.479 10.7612 107.429 10.7732C107.415 10.7766 107.402 10.7828 107.388 10.7911L105.777 11.8611C104.474 11.1242 103.186 10.9013 101.932 11.199C101.311 11.3464 100.698 11.6201 100.095 12.0201C98.0975 13.3465 96.9598 15.5536 97.1957 17.6426C97.1962 17.6446 97.1974 17.6453 97.1969 17.6475L97.1992 17.6573C97.1986 17.6637 97.2022 17.6701 97.2048 17.6767L97.2049 17.6767ZM97.6141 15.7192L99.2305 16.2058L97.4315 17.4002C97.3945 16.8392 97.4569 16.2713 97.6141 15.7192L97.6141 15.7192ZM97.5724 17.6154L99.3715 16.421L99.1738 18.1118C98.6078 18.0389 98.0675 17.8719 97.5724 17.6154L97.5724 17.6154ZM99.4272 18.1376L99.6496 16.2369L101.545 14.9783L101.191 18.0061C100.599 18.1405 100.003 18.1844 99.4272 18.1377L99.4272 18.1376ZM100.22 12.3093L103.578 13.3201L101.683 14.5787L98.6734 13.6726C99.0856 13.1491 99.5896 12.6763 100.171 12.2814C100.184 12.2929 100.2 12.3036 100.22 12.3093L100.22 12.3093ZM103.307 17.0482C103.304 17.0675 103.308 17.0863 103.314 17.1045C102.723 17.4871 102.094 17.7669 101.456 17.9411L101.824 14.7939L103.719 13.5353L103.307 17.0482ZM103.578 16.9239L103.995 13.3516L105.674 12.2365C105.847 14.2526 105.158 15.7905 103.578 16.9239L103.578 16.9239ZM105.535 12.02L103.855 13.1343L100.439 12.106C102.096 11.0905 103.768 11.0606 105.535 12.0199L105.535 12.02ZM98.5096 13.8908C98.5098 13.8918 98.5098 13.8918 98.5108 13.8915L101.405 14.7629L99.5086 16.0217L97.6917 15.4739C97.8773 14.9213 98.153 14.3866 98.5095 13.8908L98.5096 13.8908Z" fill="#5ECE7B"/>
<path opacity="0.3" d="M175.404 21.4672C175.404 21.4733 175.403 21.4813 175.404 21.4866C175.405 21.4887 175.404 21.4896 175.405 21.4917C175.405 21.4939 175.406 21.495 175.406 21.496C175.408 21.5014 175.41 21.5069 175.412 21.5133C175.415 21.5199 175.417 21.5273 175.421 21.5331C175.424 21.5365 175.426 21.5388 175.427 21.5421C175.428 21.5432 175.428 21.5452 175.429 21.5454C175.858 22.0993 176.41 22.5507 177.04 22.8909C177.044 22.8935 177.046 22.8969 177.05 22.8985C177.055 22.9013 177.061 22.9022 177.066 22.9041C178.308 23.5662 179.854 23.7918 181.403 23.4786C183.547 23.044 184.952 21.7254 185.584 19.5612L187.48 19.1782C187.549 19.1643 187.595 19.0959 187.581 19.0265C187.57 18.9718 187.527 18.9325 187.476 18.9246C187.461 18.9224 187.447 18.9232 187.432 18.9259L185.536 19.3101C184.606 18.1363 183.498 17.4448 182.223 17.2478C181.593 17.1503 180.922 17.1732 180.213 17.3164C177.863 17.7925 175.977 19.4082 175.409 21.4322C175.408 21.4342 175.409 21.4354 175.408 21.4372L175.406 21.4472C175.404 21.4528 175.404 21.4601 175.404 21.4672L175.404 21.4672ZM176.521 19.8082L177.835 20.868L175.718 21.2965C175.896 20.763 176.167 20.2604 176.521 19.8082L176.521 19.8082ZM175.768 21.5489L177.884 21.1204L177.064 22.6121C176.567 22.3313 176.13 21.9731 175.768 21.5489L175.768 21.5489ZM177.289 22.7315L178.211 21.0547L180.441 20.6028L178.973 23.2744C178.374 23.1756 177.805 22.9919 177.289 22.7316L177.289 22.7315ZM180.219 17.6313L182.949 19.8329L180.72 20.2848L178.273 18.3116C178.852 17.9819 179.497 17.7339 180.185 17.5872C180.193 17.6027 180.203 17.6186 180.219 17.6313L180.219 17.6313ZM181.294 23.1842C181.284 23.2011 181.28 23.2198 181.279 23.2391C180.588 23.3708 179.899 23.3929 179.242 23.3138L180.769 20.5372L182.999 20.0854L181.294 23.1842ZM181.591 23.1711L183.324 20.0193L185.299 19.6189C184.7 21.5516 183.482 22.7167 181.591 23.1711L181.591 23.1711ZM185.252 19.366L183.276 19.7652L180.499 17.5258C182.417 17.2092 183.976 17.8113 185.252 19.366L185.252 19.366ZM178.039 18.4519C178.039 18.4529 178.039 18.4529 178.04 18.4531L180.393 20.3506L178.162 20.8022L176.685 19.6102C177.065 19.1682 177.522 18.7769 178.039 18.4519L178.039 18.4519Z" fill="#5ECE7B"/>
<path opacity="0.3" d="M184.293 61.559C184.288 61.563 184.281 61.5671 184.278 61.5713C184.277 61.5732 184.275 61.5729 184.274 61.5747C184.273 61.5766 184.273 61.578 184.272 61.5785C184.269 61.5836 184.266 61.5888 184.262 61.5944C184.259 61.6009 184.255 61.607 184.253 61.6139C184.252 61.618 184.251 61.6207 184.249 61.624C184.249 61.6253 184.247 61.6264 184.248 61.6272C184.091 62.3103 184.091 63.0234 184.227 63.7267C184.227 63.7312 184.226 63.7353 184.227 63.7392C184.228 63.7445 184.231 63.7497 184.233 63.7553C184.507 65.1356 185.311 66.4746 186.535 67.4756C188.228 68.8595 190.139 69.112 192.214 68.231L193.711 69.456C193.765 69.5003 193.847 69.4924 193.892 69.4381C193.928 69.3952 193.931 69.3368 193.905 69.2923C193.897 69.2795 193.888 69.269 193.876 69.2587L192.378 68.035C192.698 66.5718 192.531 65.2761 191.877 64.165C191.553 63.6151 191.11 63.1106 190.55 62.6524C188.694 61.1349 186.249 60.6987 184.323 61.5402C184.321 61.5413 184.321 61.5426 184.318 61.5428L184.31 61.5479C184.304 61.5493 184.298 61.5546 184.293 61.559L184.293 61.559ZM186.284 61.3727L186.296 63.0608L184.624 61.694C185.149 61.4932 185.71 61.3854 186.284 61.3727L186.284 61.3727ZM184.46 61.8922L186.132 63.2589L184.458 63.5688C184.361 63.0064 184.361 62.4409 184.46 61.8922L184.46 61.8922ZM184.508 63.8185L186.39 63.4704L188.151 64.9101L185.154 65.4653C184.851 64.9389 184.633 64.3828 184.508 63.8186L184.508 63.8185ZM190.311 62.8569L190.335 66.3639L188.574 64.9243L188.552 61.7813C189.174 62.0208 189.774 62.3629 190.323 62.8023C190.316 62.818 190.31 62.8363 190.311 62.8568L190.311 62.8569ZM186.693 67.2044C186.674 67.2076 186.657 67.2165 186.642 67.2279C186.102 66.7762 185.649 66.2573 185.294 65.6989L188.41 65.1224L190.171 66.5621L186.693 67.2044ZM186.892 67.4266L190.428 66.7718L191.989 68.0471C190.114 68.8069 188.441 68.6025 186.892 67.4265L186.892 67.4266ZM192.155 67.8503L190.595 66.5736L190.57 63.0067C192.029 64.29 192.55 65.8786 192.155 67.8504L192.155 67.8503ZM188.295 61.6892C188.294 61.6897 188.294 61.6897 188.295 61.6905L188.316 64.7127L186.554 63.2722L186.541 61.3745C187.124 61.3889 187.716 61.4947 188.295 61.6891L188.295 61.6892Z" fill="#5ECE7B"/>
<path opacity="0.3" d="M153.415 77.4942C153.42 77.4981 153.425 77.5042 153.43 77.5067C153.432 77.5075 153.432 77.509 153.434 77.5098C153.436 77.5107 153.438 77.5108 153.438 77.5116C153.444 77.5134 153.449 77.5153 153.456 77.5179C153.462 77.5199 153.469 77.5232 153.476 77.5238C153.481 77.5241 153.483 77.5243 153.487 77.5253C153.488 77.5254 153.49 77.527 153.49 77.5263C154.191 77.5568 154.892 77.4276 155.559 77.1666C155.563 77.1655 155.568 77.1658 155.571 77.164C155.576 77.1623 155.581 77.1584 155.586 77.1552C156.894 76.6361 158.065 75.603 158.828 74.2183C159.883 72.3021 159.785 70.3776 158.543 68.4961L159.477 66.8019C159.51 66.7406 159.488 66.6615 159.426 66.6269C159.378 66.5997 159.32 66.6072 159.281 66.6411C159.269 66.6508 159.261 66.6622 159.253 66.6758L158.32 68.3701C156.824 68.3208 155.579 68.7193 154.605 69.5641C154.123 69.9823 153.707 70.5085 153.358 71.1422C152.201 73.2428 152.215 75.7259 153.391 77.4682C153.393 77.4698 153.394 77.4699 153.395 77.472L153.401 77.4797C153.404 77.4855 153.41 77.4896 153.415 77.4942L153.415 77.4942ZM152.872 75.5697L154.53 75.2525L153.488 77.1442C153.195 76.6641 152.988 76.1318 152.872 75.5697L152.872 75.5697ZM153.713 77.2696L154.754 75.378L155.362 76.9681C154.826 77.1656 154.27 77.2677 153.713 77.2696L153.713 77.2696ZM155.598 76.8736L154.915 75.086L156.012 73.0929L157.101 75.9403C156.638 76.3336 156.131 76.6483 155.598 76.8737L155.598 76.8736ZM153.602 71.3408L157.047 70.6816L155.95 72.6747L152.863 73.2653C152.986 72.6103 153.213 71.958 153.546 71.3386C153.563 71.3427 153.582 71.3449 153.602 71.3408L153.602 71.3408ZM158.533 74.1116C158.539 74.1298 158.551 74.1449 158.565 74.1581C158.219 74.7707 157.79 75.3102 157.305 75.7601L156.174 72.8002L157.271 70.8071L158.533 74.1116ZM158.715 73.8759L157.431 70.5164L158.403 68.7506C159.49 70.4576 159.591 72.1395 158.715 73.876L158.715 73.8759ZM158.179 68.6231L157.206 70.3888L153.703 71.059C154.701 69.3918 156.168 68.5912 158.179 68.6231L158.179 68.6231ZM152.819 73.5345C152.819 73.5352 152.819 73.5352 152.82 73.5346L155.788 72.9669L154.691 74.9606L152.827 75.3164C152.735 74.7406 152.732 74.139 152.819 73.5345L152.819 73.5345Z" fill="#5ECE7B"/>
</svg>
