<svg width="21" height="20" viewBox="0 0 21 20" fill="none" xmlns="http://www.w3.org/2000/svg">
<path d="M5.95455 2C2.52227 2 0.541818 4.78278 0.5 7.13767V7.14466C0.5 9.77467 1.88405 12.0193 3.77409 13.9389C5.66414 15.8585 8.07273 17.4838 10.2443 18.9227C10.3988 19.0258 10.6012 19.0258 10.7557 18.9227C12.9272 17.4836 15.3357 15.8585 17.2259 13.9389C19.1161 12.0193 20.5 9.77467 20.5 7.14466V7.13767C20.4583 4.78301 18.4776 2 15.0455 2C13.1172 2 11.4314 2.90782 10.5 4.15291C9.5687 2.90782 7.88273 2 5.95455 2ZM5.95455 2.89471C7.83132 2.89471 9.51273 3.96417 10.0952 5.11052C10.1734 5.25993 10.3296 5.35428 10.5 5.35428C10.6705 5.35428 10.8267 5.25992 10.9049 5.11052C11.4873 3.96417 13.1687 2.89471 15.0455 2.89471C17.9735 2.89471 19.5546 5.27309 19.591 7.1446V7.15159C19.5883 9.46957 18.3694 11.4914 16.5726 13.3166C14.8432 15.0737 12.5962 16.6141 10.5001 18.0069C8.40402 16.6142 6.15714 15.0738 4.42759 13.3166C2.63073 11.4914 1.41168 9.46957 1.40918 7.15159V7.1446C1.44558 5.27304 3.02673 2.89471 5.95464 2.89471H5.95455Z" fill="#43464E"/>
</svg>
