<svg width="161" height="221" viewBox="0 0 161 221" fill="none" xmlns="http://www.w3.org/2000/svg">
<path d="M82.8407 16.3279C74.6505 6.85015 63.0384 1.02064 50.5587 0.121758C38.079 -0.777127 25.7541 3.32825 16.2953 11.5347C6.83646 19.7412 1.01861 31.3766 0.121515 43.8812C-0.775578 56.3858 3.32163 68.7353 11.5118 78.213L73.4056 149.666L144.735 87.7804C154.191 79.5563 159.999 67.9051 160.882 55.3899C161.765 42.8746 157.65 30.5205 149.443 21.0453C141.235 11.5701 129.607 5.75002 117.117 4.86532C104.626 3.98062 92.297 8.10381 82.8407 16.3279Z" fill="#5ECE7B"/>
<path fill-rule="evenodd" clip-rule="evenodd" d="M50.5587 0.121758C63.0384 1.02064 74.6506 6.85015 82.8407 16.3279C92.297 8.10381 104.626 3.98062 117.117 4.86532C129.607 5.75002 141.235 11.5701 149.443 21.0453C157.65 30.5205 161.765 42.8746 160.882 55.3899C160.721 57.6802 160.394 59.9416 159.911 62.1584C160.074 61.0653 160.197 59.9632 160.279 58.8541C161.158 46.8378 157.059 34.9762 148.882 25.8787C140.705 16.7812 129.121 11.1931 116.677 10.3437C104.234 9.49427 91.9506 13.4531 82.5298 21.3493C74.3704 12.2494 62.8018 6.65229 50.3689 5.78924C37.9361 4.92619 25.6574 8.86791 16.2341 16.7472C6.81081 24.6266 1.01479 35.7981 0.121059 47.8042C0.0863358 48.2707 0.0591231 48.7369 0.0393683 49.2028C-0.0326729 47.4373 -0.00615665 45.6608 0.121515 43.8812C1.01861 31.3766 6.83646 19.7412 16.2953 11.5347C25.7541 3.32825 38.079 -0.777127 50.5587 0.121758ZM73.1422 149.361L73.4056 149.666L90.0806 135.198L73.1422 149.361Z" fill="white" fill-opacity="0.31"/>
<g opacity="0.5">
<path opacity="0.5" d="M24.7793 140.12C23.592 138.867 21.9686 138.12 20.2464 138.035C18.5241 137.95 16.8353 138.533 15.5306 139.662C14.2259 140.792 13.4056 142.382 13.24 144.102C13.0744 145.821 13.5763 147.539 14.6414 148.898L23.4019 159.056L33.5397 150.278C34.2531 149.716 34.8454 149.016 35.2808 148.218C35.7162 147.421 35.9856 146.543 36.0727 145.638C36.1598 144.734 36.0628 143.821 35.7876 142.954C35.5124 142.088 35.0647 141.287 34.4715 140.599C33.8784 139.912 33.1522 139.352 32.3368 138.953C31.5214 138.555 30.6339 138.326 29.7278 138.281C28.8217 138.237 27.916 138.376 27.0655 138.692C26.2149 139.008 25.4371 139.494 24.7793 140.12Z" fill="#5ECE7B"/>
<path opacity="0.2" d="M16.3938 140.783C17.0597 140.205 17.8327 139.765 18.6686 139.486C19.5045 139.208 20.387 139.097 21.2656 139.161C22.1442 139.224 23.0017 139.46 23.7892 139.856C24.5767 140.251 25.2787 140.798 25.8551 141.466C27.1218 140.368 28.7527 139.784 30.4271 139.83C32.1014 139.876 33.698 140.548 34.9027 141.714C34.3967 140.879 33.7147 140.164 32.9046 139.62C32.0944 139.076 31.1755 138.716 30.212 138.565C29.2486 138.413 28.2637 138.475 27.3263 138.744C26.3888 139.013 25.5213 139.485 24.7844 140.125C23.5971 138.872 21.9738 138.125 20.2515 138.04C18.5292 137.955 16.8404 138.537 15.5357 139.667C14.231 140.797 13.4107 142.387 13.2451 144.106C13.0795 145.826 13.5814 147.544 14.6466 148.903L15.1333 149.493C14.2628 148.132 13.9111 146.502 14.1426 144.902C14.3741 143.303 15.1734 141.84 16.3938 140.783Z" fill="white"/>
</g>
<g opacity="0.5">
<path opacity="0.5" d="M85.3132 199.712C83.8428 198.81 82.0817 198.511 80.3955 198.876C78.7094 199.241 77.2279 200.242 76.2586 201.672C75.2893 203.101 74.9068 204.849 75.1904 206.553C75.4741 208.256 76.4021 209.785 77.7817 210.82L88.8668 218.353L96.3983 207.245C96.9428 206.517 97.3344 205.687 97.5494 204.804C97.7643 203.921 97.7983 203.004 97.649 202.107C97.4998 201.211 97.1706 200.355 96.6812 199.59C96.1919 198.825 95.5526 198.168 94.8021 197.658C94.0516 197.148 93.2054 196.796 92.3148 196.623C91.4241 196.45 90.5076 196.459 89.6205 196.652C88.7335 196.844 87.8944 197.214 87.154 197.74C86.4137 198.266 85.7874 198.937 85.3132 199.712Z" fill="#5ECE7B"/>
<path opacity="0.2" d="M77.3807 202.528C77.8751 201.797 78.5082 201.171 79.2441 200.686C79.9799 200.2 80.8039 199.864 81.6691 199.697C82.5343 199.53 83.4237 199.535 84.2865 199.713C85.1493 199.89 85.9686 200.236 86.6977 200.731C87.6383 199.342 89.0635 198.355 90.693 197.965C92.3225 197.574 94.0384 197.809 95.503 198.622C94.7987 197.947 93.9555 197.434 93.0325 197.119C92.1095 196.804 91.1288 196.695 90.1589 196.799C89.189 196.903 88.2533 197.218 87.4171 197.721C86.5808 198.225 85.8643 198.905 85.3173 199.714C83.8471 198.813 82.0862 198.513 80.4003 198.878C78.7144 199.243 77.233 200.244 76.2639 201.674C75.2947 203.103 74.9122 204.851 75.1958 206.554C75.4794 208.257 76.4073 209.785 77.7868 210.82L78.4092 211.263C77.2172 210.176 76.4571 208.694 76.2682 207.089C76.0793 205.485 76.4743 203.865 77.3807 202.528Z" fill="white"/>
</g>
<g opacity="0.5">
<path opacity="0.5" d="M125.297 160.054C122.977 157.606 119.806 156.147 116.441 155.98C113.076 155.814 109.776 156.952 107.227 159.16C104.678 161.367 103.075 164.473 102.752 167.833C102.428 171.193 103.409 174.549 105.49 177.204L122.606 197.051L142.413 179.9C143.807 178.803 144.964 177.434 145.815 175.876C146.666 174.318 147.192 172.604 147.362 170.836C147.532 169.068 147.343 167.284 146.805 165.592C146.267 163.9 145.393 162.334 144.234 160.991C143.075 159.647 141.656 158.553 140.063 157.774C138.47 156.996 136.736 156.549 134.966 156.462C133.195 156.374 131.426 156.647 129.764 157.265C128.102 157.882 126.582 158.831 125.297 160.054Z" fill="#5ECE7B"/>
<path opacity="0.2" d="M108.913 161.35C110.214 160.221 111.724 159.36 113.358 158.816C114.991 158.272 116.715 158.056 118.432 158.18C120.148 158.304 121.824 158.765 123.362 159.538C124.901 160.311 126.272 161.379 127.398 162.683C129.873 160.538 133.06 159.398 136.331 159.488C139.603 159.578 142.722 160.891 145.076 163.169C144.087 161.537 142.755 160.141 141.172 159.078C139.589 158.015 137.794 157.312 135.911 157.016C134.029 156.72 132.104 156.84 130.273 157.366C128.441 157.892 126.746 158.813 125.307 160.063C124.212 158.667 122.846 157.507 121.291 156.655C119.736 155.802 118.024 155.275 116.26 155.104C114.496 154.934 112.715 155.124 111.027 155.663C109.338 156.201 107.775 157.078 106.434 158.239C105.093 159.4 104.001 160.822 103.224 162.418C102.447 164.014 102.002 165.752 101.914 167.526C101.827 169.3 102.1 171.073 102.716 172.738C103.332 174.403 104.279 175.926 105.499 177.214L106.45 178.367C104.75 175.708 104.062 172.523 104.515 169.398C104.967 166.272 106.529 163.415 108.913 161.35Z" fill="white"/>
</g>
</svg>
